<svg width="19" height="19" viewBox="0 0 19 19" fill="none" xmlns="http://www.w3.org/2000/svg">
<path d="M18.2873 13.359C18.5795 13.5051 18.7987 13.8338 18.7987 14.199C18.7987 14.2355 18.7987 14.3086 18.7987 14.3816L17.9221 18.1801C17.8125 18.5818 17.4838 18.8375 17.0821 18.8375C7.69554 18.8375 0.135187 11.2771 0.135187 1.89062C0.135187 1.48887 0.390851 1.16016 0.792609 1.05059L4.59105 0.174023C4.66409 0.174023 4.73714 0.137499 4.77366 0.137499C5.1389 0.137499 5.46761 0.35664 5.6137 0.685351L7.36683 4.77598C7.40335 4.88555 7.43987 4.99512 7.43987 5.10469C7.43987 5.39687 7.29378 5.65254 7.11116 5.79863L4.88323 7.6248C6.2346 10.4736 8.49905 12.7381 11.3479 14.0895L13.1741 11.8615C13.3201 11.6789 13.5758 11.5328 13.8315 11.5328C13.9776 11.5328 14.0871 11.5693 14.1967 11.6059L18.2873 13.359Z" fill="#4EAD33"/>
</svg>
