<svg width="11" height="12" viewBox="0 0 11 12" fill="none" xmlns="http://www.w3.org/2000/svg">
<path fill-rule="evenodd" clip-rule="evenodd" d="M10.968 3.643L10.99 3.614L9.608 1.038C9.55572 0.88126 9.45544 0.74495 9.32137 0.648387C9.18729 0.551825 9.02623 0.49991 8.861 0.5H6.286L7.071 3.643H10.971H10.968ZM3.929 3.643L4.714 0.5H2.139C1.97394 0.50012 1.8131 0.552132 1.67923 0.64868C1.54535 0.745227 1.44522 0.881422 1.393 1.038L0.0100006 3.613L0.0320006 3.643H3.932H3.929ZM7.071 4.428V6.393C7.07074 6.49715 7.02925 6.59696 6.9556 6.6706C6.88196 6.74425 6.78215 6.78574 6.678 6.786H4.321C4.21685 6.78574 4.11704 6.74425 4.0434 6.6706C3.96975 6.59696 3.92826 6.49715 3.928 6.393V4.428H6.37815e-07V10.714C-0.000130982 10.8173 0.0201096 10.9195 0.0595632 11.0149C0.0990168 11.1104 0.156908 11.1971 0.229921 11.2701C0.302934 11.3431 0.389634 11.401 0.485056 11.4404C0.580477 11.4799 0.682745 11.5001 0.786001 11.5H10.215C10.3182 11.5 10.4203 11.4797 10.5156 11.4402C10.6109 11.4006 10.6975 11.3427 10.7704 11.2697C10.8433 11.1967 10.9011 11.1101 10.9405 11.0147C10.9799 10.9194 11.0001 10.8172 11 10.714V4.428H7.071Z" fill="#44B830"/>
</svg>
